<?xml version="1.0" encoding="UTF-8" standalone="no"?>
<svg
   version="1.1"
   width="779.8111"
   height="779.8111"
   id="svg2"
   inkscape:version="1.1 (c4e8f9ed74, 2021-05-24)"
   sodipodi:docname="electrum_lightblue.svg"
   inkscape:export-filename="/home/voegtlin/logos/electrum_blue.png"
   inkscape:export-xdpi="10.014582"
   inkscape:export-ydpi="10.014582"
   xmlns:inkscape="http://www.inkscape.org/namespaces/inkscape"
   xmlns:sodipodi="http://sodipodi.sourceforge.net/DTD/sodipodi-0.dtd"
   xmlns:xlink="http://www.w3.org/1999/xlink"
   xmlns="http://www.w3.org/2000/svg"
   xmlns:svg="http://www.w3.org/2000/svg"
   xmlns:rdf="http://www.w3.org/1999/02/22-rdf-syntax-ns#"
   xmlns:cc="http://creativecommons.org/ns#"
   xmlns:dc="http://purl.org/dc/elements/1.1/">
  <metadata
     id="metadata53">
    <rdf:RDF>
      <cc:Work
         rdf:about="">
        <dc:format>image/svg+xml</dc:format>
        <dc:type
           rdf:resource="http://purl.org/dc/dcmitype/StillImage" />
      </cc:Work>
    </rdf:RDF>
  </metadata>
  <sodipodi:namedview
     pagecolor="#ffffff"
     bordercolor="#666666"
     borderopacity="1"
     objecttolerance="10"
     gridtolerance="10"
     guidetolerance="10"
     inkscape:pageopacity="0"
     inkscape:pageshadow="2"
     inkscape:window-width="1920"
     inkscape:window-height="1017"
     id="namedview51"
     showgrid="false"
     showguides="true"
     inkscape:guide-bbox="true"
     inkscape:zoom="1.2756746"
     inkscape:cx="358.63377"
     inkscape:cy="436.63172"
     inkscape:window-x="0"
     inkscape:window-y="0"
     inkscape:window-maximized="1"
     inkscape:current-layer="svg2"
     inkscape:showpageshadow="false"
     showborder="false"
     inkscape:document-rotation="0"
     fit-margin-top="43.37159"
     fit-margin-left="5"
     fit-margin-right="5"
     fit-margin-bottom="43.37159"
     inkscape:pagecheckerboard="0" />
  <defs
     id="defs4">
    <linearGradient
       id="linearGradient3987">
      <stop
         style="stop-color:#41b3ec;stop-opacity:1;"
         offset="0"
         id="stop4032" />
      <stop
         style="stop-color:#0581c4;stop-opacity:1;"
         offset="1"
         id="stop3991" />
    </linearGradient>
    <radialGradient
       inkscape:collect="always"
       xlink:href="#linearGradient3987"
       id="radialGradient3786"
       cx="523.18433"
       cy="732.08508"
       fx="523.18433"
       fy="732.08508"
       r="146.04732"
       gradientTransform="matrix(-0.89061708,0.86297075,-0.78291311,-0.80799475,1427.0215,361.93369)"
       gradientUnits="userSpaceOnUse" />
    <radialGradient
       inkscape:collect="always"
       xlink:href="#linearGradient3987"
       id="radialGradient3796"
       cx="529.57996"
       cy="728.15845"
       fx="529.57996"
       fy="728.15845"
       r="146.04732"
       gradientTransform="matrix(-0.87083717,0.55292729,-0.71897156,-1.1320773,466.9435,499.54917)"
       gradientUnits="userSpaceOnUse" />
    <radialGradient
       inkscape:collect="always"
       xlink:href="#linearGradient3987"
       id="radialGradient3800"
       cx="505.65533"
       cy="726.3916"
       fx="505.65533"
       fy="726.3916"
       r="146.04732"
       gradientTransform="matrix(-0.94821917,1.3404019,-1.4302101,-1.0037148,1646.3219,-657.0863)"
       gradientUnits="userSpaceOnUse" />
  </defs>
  <ellipse
     style="fill:none;fill-opacity:0;stroke:url(#radialGradient3786);stroke-width:37.5001;stroke-miterlimit:4;stroke-dasharray:none;stroke-opacity:1;marker-start:none"
     id="path3803"
     inkscape:export-filename="/home/voegtlin/logos/electrum_light.png"
     inkscape:export-xdpi="15.13"
     inkscape:export-ydpi="15.13"
     cx="389.90555"
     cy="389.90555"
     rx="366.15549"
     ry="173.5993" />
  <ellipse
     transform="matrix(-0.50141536,-0.8652067,0.86684024,-0.498586,0,0)"
     id="path4023"
     style="fill:none;fill-opacity:0;stroke:url(#radialGradient3796);stroke-width:37.5002;stroke-miterlimit:4;stroke-dasharray:none;stroke-opacity:1;marker-start:none"
     inkscape:export-filename="/home/voegtlin/logos/electrum_light.png"
     inkscape:export-xdpi="15.13"
     inkscape:export-ydpi="15.13"
     cx="-532.39014"
     cy="141.84499"
     rx="365.12195"
     ry="174.09163" />
  <ellipse
     style="fill:none;fill-opacity:0;stroke:url(#radialGradient3800);stroke-width:37.5002;stroke-miterlimit:4;stroke-dasharray:none;stroke-opacity:1;marker-start:none"
     id="path4029"
     transform="matrix(-0.50141531,0.86520673,-0.86684024,-0.498586,0,0)"
     inkscape:export-filename="/home/voegtlin/logos/electrum_light.png"
     inkscape:export-xdpi="15.13"
     inkscape:export-ydpi="15.13"
     cx="143.58514"
     cy="-532.85632"
     rx="365.12195"
     ry="174.09163" />
  <path
     inkscape:connector-curvature="0"
     id="path30"
     style="fill:#60c680;fill-opacity:1;fill-rule:nonzero;stroke:none;stroke-width:0.097688"
     d="m 412.42184,413.96464 h -55.21603 v -55.47281 h 55.21603 z m 83.315,-92.83745 c -2.2832,-13.20839 -9.54422,-25.71441 -20.07987,-34.03346 -9.77757,-8.04066 -22.30725,-12.36238 -34.94803,-12.37315 -37.48633,-0.0112 -75.0056,-0.0447 -112.4925,0.0112 -19.56797,0.22274 -38.05462,11.54864 -47.57651,28.5659 -5.29044,9.13279 -7.27275,19.40077 -7.28391,29.86904 0,34.14578 0,68.3131 0,102.45877 -0.067,7.94135 0.27912,15.56969 2.76272,23.18709 5.52323,17.65248 20.42487,31.94123 38.22098,36.91838 -5.37919,-4.28761 -7.76231,-10.25603 -9.51072,-16.71642 -3.61963,-14.1655 -3.89819,-28.8775 -3.31873,-43.38905 -0.0558,-34.15644 0,-68.31299 -0.0558,-102.45877 0.0558,-5.87988 0.49125,-11.4041 3.49681,-16.60499 4.63339,-8.29662 13.66571,-13.84339 23.24286,-13.72025 35.62684,-0.0223 71.29778,0.0112 106.92463,-0.0112 5.37975,0.0112 10.26769,-0.39077 15.4141,1.55905 8.55279,2.83881 15.33484,10.48977 17.2055,19.28851 1.05842,5.16768 0.77986,10.90292 0.79047,16.17025 0,33.41118 0,66.8212 0,100.23161 0,4.92261 -0.54708,9.73374 -2.66113,14.23304 -4.36543,9.1319 -13.80917,15.46904 -24.04393,15.28052 -28.19947,0.0447 -56.43131,-0.0112 -84.62966,0.0223 -0.0558,-9.18767 -0.0558,-18.38668 0,-27.58496 23.02068,0 46.02908,-0.0335 69.0492,0.0223 4.95549,0.26628 10.65735,-2.23921 12.94054,-6.80505 1.29121,-2.32808 1.50334,-4.81219 1.55917,-7.40666 0,-27.85286 0,-55.69483 0,-83.54863 0.22329,-5.1559 -2.2726,-9.75607 -6.83844,-12.20607 -3.80886,-2.21554 -7.88513,-1.64798 -12.12775,-1.72613 -26.35057,0.0675 -52.73297,-0.0335 -79.07182,0.0558 -7.53958,-0.1898 -13.82034,6.37024 -13.58699,13.87655 -0.11165,40.01488 0,80.25239 -0.0558,120.28882 0.21213,7.95195 -0.0558,15.49148 4.56584,22.37468 3.49737,5.6903 9.4108,8.57478 15.76971,9.83406 7.51781,1.21339 14.71184,0.92416 22.26315,0.93483 23.019,0.0112 46.02851,-0.0112 69.04752,0.0223 11.44893,0.10048 22.59753,-3.60869 31.99661,-10.07935 10.07845,-7.42805 17.89771,-17.67386 21.49445,-29.7459 2.48305,-8.16308 2.43839,-16.09332 2.48305,-24.52346 0,-31.92951 0,-63.84802 0,-95.77725 -0.0558,-5.47935 -0.10049,-11.07 -0.94622,-16.49363" />
</svg>
