<?xml version="1.0" encoding="UTF-8" standalone="no"?>
<svg
   version="1.1"
   width="779.8111"
   height="779.8111"
   id="svg2"
   inkscape:version="1.1 (c4e8f9ed74, 2021-05-24)"
   sodipodi:docname="electrum_darkblue.svg"
   inkscape:export-filename="/home/voegtlin/logos/electrum_blue.png"
   inkscape:export-xdpi="10.014582"
   inkscape:export-ydpi="10.014582"
   xmlns:inkscape="http://www.inkscape.org/namespaces/inkscape"
   xmlns:sodipodi="http://sodipodi.sourceforge.net/DTD/sodipodi-0.dtd"
   xmlns:xlink="http://www.w3.org/1999/xlink"
   xmlns="http://www.w3.org/2000/svg"
   xmlns:svg="http://www.w3.org/2000/svg"
   xmlns:rdf="http://www.w3.org/1999/02/22-rdf-syntax-ns#"
   xmlns:cc="http://creativecommons.org/ns#"
   xmlns:dc="http://purl.org/dc/elements/1.1/">
  <metadata
     id="metadata53">
    <rdf:RDF>
      <cc:Work
         rdf:about="">
        <dc:format>image/svg+xml</dc:format>
        <dc:type
           rdf:resource="http://purl.org/dc/dcmitype/StillImage" />
      </cc:Work>
    </rdf:RDF>
  </metadata>
  <sodipodi:namedview
     pagecolor="#ffffff"
     bordercolor="#666666"
     borderopacity="1"
     objecttolerance="10"
     gridtolerance="10"
     guidetolerance="10"
     inkscape:pageopacity="0"
     inkscape:pageshadow="2"
     inkscape:window-width="1920"
     inkscape:window-height="1017"
     id="namedview51"
     showgrid="true"
     showguides="true"
     inkscape:guide-bbox="true"
     inkscape:zoom="1.9883082"
     inkscape:cx="233.61569"
     inkscape:cy="383.24038"
     inkscape:window-x="0"
     inkscape:window-y="0"
     inkscape:window-maximized="1"
     inkscape:current-layer="svg2"
     inkscape:showpageshadow="false"
     showborder="false"
     inkscape:document-rotation="0"
     fit-margin-top="43.371585"
     fit-margin-left="5"
     fit-margin-right="5"
     fit-margin-bottom="43.37159"
     inkscape:pagecheckerboard="0">
    <inkscape:grid
       type="xygrid"
       id="grid40"
       originx="0.8417048"
       originy="30.067951" />
  </sodipodi:namedview>
  <defs
     id="defs4">
    <linearGradient
       id="linearGradient3987">
      <stop
         style="stop-color:#1382ef;stop-opacity:1;"
         offset="0"
         id="stop4032" />
      <stop
         style="stop-color:#0056c0;stop-opacity:1;"
         offset="1"
         id="stop3991" />
    </linearGradient>
    <radialGradient
       inkscape:collect="always"
       xlink:href="#linearGradient3987"
       id="radialGradient3786"
       cx="523.18433"
       cy="732.08508"
       fx="523.18433"
       fy="732.08508"
       r="146.04732"
       gradientTransform="matrix(-0.89061708,0.86297075,-0.78291311,-0.80799475,1427.0215,361.93374)"
       gradientUnits="userSpaceOnUse" />
    <radialGradient
       inkscape:collect="always"
       xlink:href="#linearGradient3987"
       id="radialGradient3796"
       cx="529.57996"
       cy="728.15845"
       fx="529.57996"
       fy="728.15845"
       r="146.04732"
       gradientTransform="matrix(-0.87083717,0.55292729,-0.71897156,-1.1320773,466.94349,499.54907)"
       gradientUnits="userSpaceOnUse" />
    <radialGradient
       inkscape:collect="always"
       xlink:href="#linearGradient3987"
       id="radialGradient3800"
       cx="505.65533"
       cy="726.3916"
       fx="505.65533"
       fy="726.3916"
       r="146.04732"
       gradientTransform="matrix(-0.94821917,1.3404019,-1.4302101,-1.0037148,1646.3221,-657.08623)"
       gradientUnits="userSpaceOnUse" />
  </defs>
  <ellipse
     style="fill:none;fill-opacity:0;stroke:url(#radialGradient3786);stroke-width:37.5001;stroke-miterlimit:4;stroke-dasharray:none;stroke-opacity:1;marker-start:none"
     id="path3803"
     inkscape:export-filename="/home/voegtlin/logos/electrum_blue_128.png"
     inkscape:export-xdpi="15.13"
     inkscape:export-ydpi="15.13"
     cx="389.90555"
     cy="389.90558"
     rx="366.15549"
     ry="173.5993" />
  <ellipse
     transform="matrix(-0.50141536,-0.8652067,0.86684024,-0.498586,0,0)"
     id="path4023"
     style="fill:none;fill-opacity:0;stroke:url(#radialGradient3796);stroke-width:37.5002;stroke-miterlimit:4;stroke-dasharray:none;stroke-opacity:1;marker-start:none"
     inkscape:export-filename="/home/voegtlin/logos/electrum_blue_128.png"
     inkscape:export-xdpi="15.13"
     inkscape:export-ydpi="15.13"
     cx="-532.39014"
     cy="141.84494"
     rx="365.12195"
     ry="174.09163" />
  <ellipse
     style="fill:none;fill-opacity:0;stroke:url(#radialGradient3800);stroke-width:37.5002;stroke-miterlimit:4;stroke-dasharray:none;stroke-opacity:1;marker-start:none"
     id="path4029"
     transform="matrix(-0.50141531,0.86520673,-0.86684024,-0.498586,0,0)"
     inkscape:export-filename="/home/voegtlin/logos/electrum_blue_128.png"
     inkscape:export-xdpi="15.13"
     inkscape:export-ydpi="15.13"
     cx="143.58517"
     cy="-532.85626"
     rx="365.12195"
     ry="174.09163" />
  <path
     inkscape:connector-curvature="0"
     id="path30"
     style="fill:#60c680;fill-opacity:1;fill-rule:nonzero;stroke:none;stroke-width:0.0910672"
     d="M 414.63478,412.96948 H 363.16094 V 361.2563 h 51.47384 z m 77.66837,-86.54545 c -2.12819,-12.3132 -8.8972,-23.97163 -18.71881,-31.72686 -9.11489,-7.49571 -20.79518,-11.52458 -32.57923,-11.53457 -34.94614,-0.0107 -69.92246,-0.0417 -104.86871,0.0107 -18.24155,0.20765 -35.47564,10.76593 -44.35214,26.62986 -4.93152,8.51383 -6.77952,18.0859 -6.78983,27.84469 0.0208,31.83157 -0.0107,63.68322 0.0107,95.51468 -0.0624,7.40313 0.25968,14.51447 2.57512,21.6156 5.14883,16.4561 19.04052,29.77644 35.63062,34.41627 -5.0143,-3.99703 -7.23592,-9.56094 -8.86619,-15.58348 -3.3741,-13.20544 -3.63373,-26.92036 -3.09381,-40.44839 -0.052,-31.8415 0.0208,-63.68311 -0.0417,-95.51468 0.0526,-5.48137 0.45692,-10.6312 3.25993,-15.4796 4.3193,-7.73432 12.73946,-12.90517 21.66758,-12.79036 33.21246,-0.0208 66.46573,0.0107 99.67787,-0.0107 5.01509,0.0107 9.57207,-0.36429 14.36948,1.45338 7.97292,2.64642 14.29569,9.77877 16.03967,17.98125 0.98622,4.81744 0.7267,10.16398 0.73674,15.07431 0,31.14676 0,62.29244 0,93.43847 0,4.58899 -0.50793,9.07405 -2.48072,13.2684 -4.06978,8.513 -12.87321,14.42064 -22.41432,14.2449 -26.28832,0.0417 -52.60671,-0.0107 -78.89388,0.0208 -0.052,-8.56498 -0.0417,-17.14053 -0.0107,-25.71541 21.45995,0 42.90902,-0.0312 64.36896,0.0208 4.61985,0.24824 9.93542,-2.08745 12.06367,-6.34384 1.20391,-2.1703 1.4015,-4.48605 1.45339,-6.90468 -0.0208,-25.96514 -0.0107,-51.92014 -0.0107,-77.88617 0.20765,-4.80647 -2.11821,-9.09486 -6.3747,-11.37881 -3.55067,-2.06538 -7.35094,-1.53629 -11.30596,-1.60915 -24.56441,0.0624 -49.15918,-0.0312 -73.71277,0.052 -7.02849,-0.17693 -12.88383,5.9385 -12.6662,12.93607 -0.10352,37.30291 0,74.81334 -0.052,112.13633 0.19724,7.41301 -0.0417,14.44154 4.25665,20.85825 3.25992,5.30463 8.77268,7.99362 14.70098,9.1675 7.00788,1.13121 13.71481,0.86158 20.75402,0.87153 21.45906,0.0107 42.90901,-0.0107 64.36802,0.0208 10.67308,0.0937 21.06563,-3.36411 29.82811,-9.39622 9.39538,-6.92462 16.68444,-16.47603 20.03752,-27.7299 2.31492,-7.60983 2.27302,-15.00264 2.31492,-22.86139 0,-29.76551 0.0107,-59.52076 0,-89.286 -0.0417,-5.10799 -0.0926,-10.31974 -0.88245,-15.37578" />
</svg>
